<svg xmlns="http://www.w3.org/2000/svg" version="1.1" xmlns:xlink="http://www.w3.org/1999/xlink" xmlns:svgjs="http://svgjs.dev/svgjs" width="2000" height="1500" viewBox="0 0 2000 1500"><rect width="2000" height="1500" fill="#ffffff"></rect><g transform="matrix(0.3907776475185619,0,0,0.3907776475185619,608.5493205566205,250.40485829959516)"><svg viewBox="0 0 193 247" data-background-color="#ffffff" preserveAspectRatio="xMidYMid meet" height="2559" width="2000" xmlns="http://www.w3.org/2000/svg" xmlns:xlink="http://www.w3.org/1999/xlink"><g id="tight-bounds" transform="matrix(1,0,0,1,0.1662008591261781,-0.09999999999999432)"><svg viewBox="0 0 192.66759828174764 247.2" height="247.2" width="192.66759828174764"><g><svg viewBox="0 0 395.52 507.46749776276454" height="247.2" width="192.66759828174764"><g transform="matrix(1,0,0,1,0,200.99240482897608)"><svg viewBox="0 0 395.52 306.47509293378846" height="306.47509293378846" width="395.52"><g id="textblocktransform"><svg viewBox="0 0 395.52 306.47509293378846" height="306.47509293378846" width="395.52" id="textblock"><g><svg viewBox="0 0 395.52 193.41978514466484" height="193.41978514466484" width="395.52"><g transform="matrix(1,0,0,1,0,0)"><svg width="395.52" viewBox="3.66 -35.62 74.08571428569999 36.23" height="193.41978514466484" data-palette-color="#347bba"><path d="M23.54-14.01L23.73-14.01Q24.07-15.33 24.48-16.61 24.88-17.9 25.46-19.48L25.46-19.48Q25.98-20.9 26.71-22.74 27.44-24.58 28.26-26.49 29.08-28.39 29.86-30.03 30.64-31.67 31.27-32.64L31.27-32.64Q32.06-33.84 32.97-34.42 33.89-35.01 35.67-35.01L35.67-35.01 38.87-35.01Q40.14-35.01 41-34.63 41.87-34.25 42.24-32.84L42.24-32.84Q42.5-31.79 42.75-29.76 42.99-27.73 43.16-24.15 43.33-20.56 43.43-14.93 43.53-9.3 43.53-1.03L43.53-1.03Q43.53-0.59 43.24-0.29 42.94 0 42.53 0L42.53 0 36.96 0Q36.55 0 36.25-0.29 35.96-0.59 35.96-1.05L35.96-1.05Q35.96-7.5 35.96-11.99 35.96-16.48 35.94-19.43 35.91-22.39 35.88-24.13 35.84-25.88 35.77-26.83L35.77-26.83 35.62-26.83Q34.33-23.85 32.86-20.2 31.4-16.55 30-12.68 28.61-8.81 27.51-5.13L27.51-5.13Q27.2-4.03 26.72-3.6 26.25-3.17 24.56-3.17L24.56-3.17 21.75-3.17Q20.31-3.17 19.84-3.54 19.36-3.91 19.02-5.13L19.02-5.13Q18.21-7.91 17.24-11.01 16.26-14.11 15.22-17.1 14.18-20.09 13.22-22.62 12.26-25.15 11.5-26.83L11.5-26.83 11.35-26.83Q11.16-23.95 11.01-19.82 10.86-15.7 10.78-10.86 10.69-6.03 10.67-1L10.67-1Q10.67-0.56 10.38-0.28 10.08 0 9.67 0L9.67 0 4.66 0Q4.25 0 3.96-0.29 3.66-0.59 3.66-1.05L3.66-1.05Q3.69-14.06 4.19-21.83 4.69-29.59 5.27-32.23L5.27-32.23Q5.66-33.96 6.65-34.48 7.64-35.01 8.91-35.01L8.91-35.01 12.87-35.01Q14.21-35.01 14.83-34.53 15.45-34.06 16.36-32.69L16.36-32.69Q16.89-31.88 17.64-30.27 18.38-28.66 19.19-26.7 20-24.73 20.72-22.81 21.44-20.9 21.9-19.48L21.9-19.48Q22.39-18.04 22.8-16.69 23.22-15.33 23.54-14.01L23.54-14.01ZM65.79-5.98L65.79-5.98Q67.58-5.98 68.59-6.35 69.6-6.71 70.16-7.25 70.73-7.79 71.14-8.33L71.14-8.33Q71.53-8.81 71.79-9.06 72.04-9.3 72.51-9.4L72.51-9.4Q72.9-9.52 73.76-9.56 74.63-9.59 75.5-9.59 76.36-9.59 76.71-9.55L76.71-9.55Q77.22-9.52 77.41-9.35L77.41-9.35Q77.61-9.18 77.66-8.62L77.66-8.62Q77.73-7.84 77.74-6.76 77.76-5.69 77.71-4.91L77.71-4.91Q77.68-4.66 77.62-4.49 77.56-4.32 77.37-3.98L77.37-3.98Q77.12-3.59 76.41-2.84 75.71-2.1 74.34-1.31 72.97-0.51 70.81 0.05 68.65 0.61 65.5 0.61L65.5 0.61Q62.13 0.61 59.2-0.26 56.27-1.12 54.06-3.17 51.85-5.22 50.62-8.72 49.39-12.21 49.39-17.43L49.39-17.43Q49.39-23.24 51.4-27.31 53.42-31.37 57.13-33.5 60.84-35.62 65.92-35.62L65.92-35.62Q69.48-35.62 71.64-34.89 73.8-34.16 74.92-33.17 76.05-32.18 76.51-31.45L76.51-31.45Q76.68-31.18 76.76-30.97 76.83-30.76 76.85-30.32L76.85-30.32Q76.93-29.74 76.89-28.61 76.85-27.49 76.71-26.64L76.71-26.64Q76.61-26.1 76.39-25.93L76.39-25.93Q76.29-25.83 76.05-25.76 75.8-25.68 75.31-25.68L75.31-25.68Q74.53-25.68 73.56-25.74 72.58-25.81 72.09-25.88L72.09-25.88Q71.51-25.98 71.24-26.16 70.97-26.34 70.7-26.73L70.7-26.73Q70.26-27.37 69.19-28.2 68.11-29.03 65.65-29.03L65.65-29.03Q62.18-29.03 59.93-26.35 57.69-23.68 57.69-17.7L57.69-17.7Q57.69-11.74 60.04-8.86 62.4-5.98 65.79-5.98Z" opacity="1" transform="matrix(1,0,0,1,0,0)" fill="#347bba" class="wordmark-text-0" data-fill-palette-color="primary" id="text-0"></path></svg></g></svg></g><g transform="matrix(1,0,0,1,0,239.08155434247675)"><svg viewBox="0 0 395.52 67.39353859131168" height="67.39353859131168" width="395.52"><g transform="matrix(1,0,0,1,0,0)"><svg width="395.52" viewBox="-0.1 -39.65 237.1 40.4" height="67.39353859131168" data-palette-color="#ff851b"><path d="M24.95 0L18.5 0 16.8-8.1 7.9-8.1 6.25 0-0.1 0 8.6-34.55 16.3-34.55 24.95 0ZM12.35-29.7L8.9-12.9 15.85-12.9 12.35-29.7ZM40.65-37.7L46.8-37.05 46.8 0 41.35 0 41.05-3.05Q38.7 0.75 35 0.75L35 0.75Q30.9 0.75 28.73-2.93 26.55-6.6 26.55-13.2L26.55-13.2Q26.55-17.4 27.68-20.58 28.8-23.75 30.8-25.45 32.8-27.15 35.4-27.15L35.4-27.15Q38.6-27.15 40.65-24.5L40.65-24.5 40.65-37.7ZM36.75-3.9Q37.9-3.9 38.83-4.7 39.75-5.5 40.65-7L40.65-7 40.65-19.85Q39.05-22.55 37-22.55L37-22.55Q32.95-22.55 32.95-13.25L32.95-13.25Q32.95-8.2 33.95-6.05 34.95-3.9 36.75-3.9L36.75-3.9ZM76.15-27.15Q78.8-27.15 80.4-25.1 82-23.05 82-19.6L82-19.6 82 0 75.95 0 75.95-18.95Q75.95-20.85 75.45-21.68 74.95-22.5 74-22.5L74-22.5Q72.05-22.5 70.25-18.8L70.25-18.8 70.25 0 64.25 0 64.25-18.95Q64.25-22.5 62.35-22.5L62.35-22.5Q60.3-22.5 58.55-18.8L58.55-18.8 58.55 0 52.5 0 52.5-26.45 57.85-26.45 58.25-23.05Q60.85-27.15 64.5-27.15L64.5-27.15Q66.35-27.15 67.7-26 69.05-24.85 69.75-22.75L69.75-22.75Q72.4-27.15 76.15-27.15L76.15-27.15ZM87.5-26.45L93.65-26.45 93.65 0 87.5 0 87.5-26.45ZM90.55-39.65Q92.2-39.65 93.23-38.6 94.25-37.55 94.25-35.9L94.25-35.9Q94.25-34.3 93.23-33.25 92.2-32.2 90.55-32.2L90.55-32.2Q88.9-32.2 87.88-33.25 86.85-34.3 86.85-35.9L86.85-35.9Q86.85-37.55 87.88-38.6 88.9-39.65 90.55-39.65L90.55-39.65ZM111.7-27.15Q114.55-27.15 116.2-25.1 117.85-23.05 117.85-19.6L117.85-19.6 117.85 0 111.7 0 111.7-18.9Q111.7-20.8 111.17-21.63 110.65-22.45 109.65-22.45L109.65-22.45Q107.55-22.45 105.5-18.5L105.5-18.5 105.5 0 99.35 0 99.35-26.45 104.7-26.45 105.15-23Q106.5-25.1 108.03-26.13 109.55-27.15 111.7-27.15L111.7-27.15ZM141.3-34.55Q147.55-34.55 150.83-31.78 154.1-29 154.1-23.6L154.1-23.6Q154.1-17.85 150.88-15 147.65-12.15 141.75-12.15L141.75-12.15 139.75-12.15 139.75 0 133.4 0 133.4-34.55 141.3-34.55ZM141.4-16.9Q144.65-16.9 146.1-18.4 147.55-19.9 147.55-23.55L147.55-23.55Q147.55-26.85 146.1-28.35 144.65-29.85 141.45-29.85L141.45-29.85 139.75-29.85 139.75-16.9 141.4-16.9ZM174.6-6.4Q174.6-5.1 174.95-4.48 175.3-3.85 176.1-3.45L176.1-3.45 174.85 0.65Q172.8 0.4 171.58-0.45 170.35-1.3 169.75-3.05L169.75-3.05Q167.45 0.75 163.3 0.75L163.3 0.75Q160 0.75 158.05-1.48 156.1-3.7 156.1-7.4L156.1-7.4Q156.1-11.7 158.78-13.95 161.45-16.2 166.55-16.2L166.55-16.2 168.6-16.2 168.6-18.05Q168.6-20.55 167.73-21.58 166.85-22.6 164.9-22.6L164.9-22.6Q162.55-22.6 159.05-21.3L159.05-21.3 157.65-25.3Q159.65-26.2 161.8-26.68 163.95-27.15 165.9-27.15L165.9-27.15Q174.6-27.15 174.6-18.35L174.6-18.35 174.6-6.4ZM164.95-3.7Q167.35-3.7 168.6-7L168.6-7 168.6-12.55 167.15-12.55Q164.6-12.55 163.43-11.4 162.25-10.25 162.25-7.85L162.25-7.85Q162.25-5.8 162.95-4.75 163.65-3.7 164.95-3.7L164.95-3.7ZM192.75-27.15Q195.6-27.15 197.25-25.1 198.9-23.05 198.9-19.6L198.9-19.6 198.9 0 192.75 0 192.75-18.9Q192.75-20.8 192.23-21.63 191.7-22.45 190.7-22.45L190.7-22.45Q188.6-22.45 186.55-18.5L186.55-18.5 186.55 0 180.4 0 180.4-26.45 185.75-26.45 186.2-23Q187.55-25.1 189.08-26.13 190.6-27.15 192.75-27.15L192.75-27.15ZM223.3-13.85Q223.3-13.4 223.15-11.3L223.15-11.3 209.5-11.3Q209.7-7.2 210.93-5.58 212.15-3.95 214.4-3.95L214.4-3.95Q215.95-3.95 217.2-4.48 218.45-5 219.9-6.15L219.9-6.15 222.45-2.65Q218.95 0.75 214.05 0.75L214.05 0.75Q208.85 0.75 206.08-2.85 203.3-6.45 203.3-13L203.3-13Q203.3-19.55 205.95-23.35 208.6-27.15 213.45-27.15L213.45-27.15Q218.1-27.15 220.7-23.78 223.3-20.4 223.3-13.85L223.3-13.85ZM217.3-15.3L217.3-15.65Q217.3-19.4 216.4-21.13 215.5-22.85 213.5-22.85L213.5-22.85Q211.65-22.85 210.68-21.18 209.7-19.5 209.5-15.3L209.5-15.3 217.3-15.3ZM233.2 0.75Q230.5 0.75 228.93-0.93 227.35-2.6 227.35-5.4L227.35-5.4 227.35-37.05 233.5-37.7 233.5-5.65Q233.5-5 233.8-4.6 234.1-4.2 234.7-4.2L234.7-4.2Q235.05-4.2 235.38-4.3 235.7-4.4 235.8-4.4L235.8-4.4 237-0.2Q235.3 0.75 233.2 0.75L233.2 0.75Z" opacity="1" transform="matrix(1,0,0,1,0,0)" fill="#ff851b" class="slogan-text-1" data-fill-palette-color="secondary" id="text-1"></path></svg></g></svg></g></svg></g></svg></g><g transform="matrix(1,0,0,1,68.21137920000001,0)"><svg viewBox="0 0 259.09724159999996 155.33063563116417" height="155.33063563116417" width="259.09724159999996"><g><svg xmlns="http://www.w3.org/2000/svg" xmlns:xlink="http://www.w3.org/1999/xlink" version="1.1" x="0" y="0" viewBox="3.337 22.026 93.325 55.949" enable-background="new 0 0 100 100" xml:space="preserve" height="155.33063563116417" width="259.09724159999996" class="icon-icon-0" data-fill-palette-color="accent" id="icon-0"><g fill="#2fccc1" data-fill-palette-color="accent"><path d="M38.285 71.356l-20.036-0.004c-0.046 0.002-0.106 0.004-0.179 0.004-2.556 0-5.133-1.786-5.133-5.772V27.799c0-3.988 2.577-5.773 5.133-5.773 0.072 0 0.133 0.002 0.179 0.004l20.038-0.004 43.463 0.004c0.045-0.002 0.105-0.004 0.179-0.004 2.554 0 5.132 1.785 5.132 5.773L87.06 65.584c0 3.986-2.578 5.772-5.133 5.772-0.073 0-0.134-0.002-0.179-0.004L38.285 71.356zM81.874 67.678l0.074 0.006c0.973-0.002 1.437-0.669 1.437-2.1l0.001-37.785c0-1.432-0.463-2.099-1.457-2.099l-0.112 0.015-0.014-0.01L27.94 25.7l-9.818 0.005-0.073-0.007c-0.974 0.002-1.437 0.669-1.437 2.101v37.785c0 1.431 0.463 2.098 1.458 2.098l0.111-0.015 0.016 0.011 20.088 0.004L81.874 67.678zM96.662 74.3H3.337v3.675h93.325V74.3zM57.538 52.297l-6.015-6.256 2.579-2.684-10.312-3.574 3.437 10.725 2.578-2.682 6.016 6.259L57.538 52.297z" fill="#2fccc1" data-fill-palette-color="accent"></path></g></svg></g></svg></g><g></g></svg></g><defs></defs></svg><rect width="192.66759828174764" height="247.2" fill="none" stroke="none" visibility="hidden"></rect></g></svg></g></svg>