<?xml version="1.0" encoding="UTF-8"?>
<svg xmlns="http://www.w3.org/2000/svg" xmlns:xlink="http://www.w3.org/1999/xlink" width="40px" height="40px" viewBox="0 0 40 40" version="1.1">
<g id="surface1">
<path style=" stroke:none;fill-rule:nonzero;fill:rgb(0%,0%,0%);fill-opacity:1;" d="M 26.25 40.3125 C 17.8125 40.3125 9.53125 40.300781 1.25 40.332031 C 0.46875 40.335938 0.289062 40.15625 0.292969 39.375 C 0.320312 26.667969 0.320312 13.957031 0.292969 1.25 C 0.289062 0.46875 0.46875 0.289062 1.25 0.292969 C 13.957031 0.320312 26.667969 0.320312 39.375 0.292969 C 40.15625 0.289062 40.335938 0.46875 40.332031 1.25 C 40.304688 13.957031 40.304688 26.667969 40.332031 39.375 C 40.335938 40.15625 40.15625 40.339844 39.375 40.332031 C 35.050781 40.289062 30.730469 40.3125 26.25 40.3125 Z M 26.25 40.3125 "/>
<path style=" stroke:none;fill-rule:nonzero;fill:rgb(0.784314%,30.980392%,24.705882%);fill-opacity:1;" d="M 12.679688 12.914062 C 12.859375 8.894531 14.941406 5.972656 17.984375 3.949219 C 20.933594 1.984375 25.496094 2.484375 28.40625 4.523438 C 30.761719 6.167969 32.289062 8.449219 32.894531 11.429688 C 33.8125 12.449219 33.675781 13.566406 33.488281 14.644531 C 32.65625 19.480469 28.101562 23.394531 23.425781 23.621094 C 18.300781 23.867188 13.3125 20.246094 12.234375 15.089844 C 12.078125 14.339844 11.902344 13.609375 12.679688 12.914062 Z M 12.679688 12.914062 "/>
<path style=" stroke:none;fill-rule:nonzero;fill:rgb(2.352941%,88.627451%,47.058824%);fill-opacity:1;" d="M 12.652344 12.820312 C 13.0625 20.796875 21.21875 25.105469 27.605469 21.550781 C 31.386719 19.445312 32.910156 16.039062 32.882812 11.683594 C 34.296875 11.222656 35.597656 11.929688 37.015625 11.800781 C 38.027344 11.710938 37.917969 13.039062 37.75 13.816406 C 37.429688 15.300781 36.957031 16.75 36.554688 18.21875 C 35.796875 20.957031 35.007812 23.6875 34.304688 26.4375 C 34 27.640625 33.199219 28.152344 32.121094 28.089844 C 29.734375 27.957031 27.390625 28.4375 25.015625 28.445312 C 21.257812 28.460938 17.535156 29.132812 13.628906 29.089844 C 11.945312 29.902344 11.515625 29.707031 11.292969 27.953125 C 10.472656 24.738281 9.664062 21.699219 8.859375 18.65625 C 8.511719 17.335938 8.167969 16.011719 7.800781 14.566406 C 7.574219 13.796875 7.417969 13.136719 7.96875 12.578125 C 8.445312 12.097656 8.953125 12.191406 9.578125 12.679688 C 10.652344 12.785156 11.59375 12.800781 12.652344 12.820312 Z M 12.652344 12.820312 "/>
<path style=" stroke:none;fill-rule:nonzero;fill:rgb(1.568627%,30.588235%,24.313725%);fill-opacity:1;" d="M 11.222656 27.878906 C 11.796875 28.425781 12.25 29.167969 13.367188 29.109375 C 13.460938 29.539062 13.148438 29.800781 12.867188 30.195312 C 13.335938 30.652344 13.925781 30.457031 14.476562 30.457031 C 21.570312 30.484375 28.664062 30.445312 35.890625 30.554688 C 36.875 32.09375 36.699219 32.554688 35.039062 33.082031 C 33.152344 33.746094 31.359375 34.003906 29.476562 32.96875 C 25.460938 32.8125 21.554688 32.628906 17.554688 33.070312 C 15.679688 33.851562 13.898438 33.789062 12.003906 33.152344 C 9.605469 31.699219 9.953125 29.800781 11.222656 27.878906 Z M 11.222656 27.878906 "/>
<path style=" stroke:none;fill-rule:nonzero;fill:rgb(5.490196%,87.058824%,47.843137%);fill-opacity:1;" d="M 29.359375 33.003906 C 31.152344 32.847656 32.949219 32.574219 34.839844 33.097656 C 35.640625 35.160156 35.226562 36.671875 33.769531 37.492188 C 32.488281 38.210938 30.691406 37.886719 29.722656 36.734375 C 28.789062 35.625 28.890625 34.390625 29.359375 33.003906 Z M 29.359375 33.003906 "/>
<path style=" stroke:none;fill-rule:nonzero;fill:rgb(5.098039%,87.45098%,47.45098%);fill-opacity:1;" d="M 11.863281 33.1875 C 13.675781 32.644531 15.449219 32.667969 17.339844 33.09375 C 18.425781 36.003906 17.15625 37.933594 14.386719 37.8125 C 12.203125 37.714844 11.105469 35.789062 11.863281 33.1875 Z M 11.863281 33.1875 "/>
<path style=" stroke:none;fill-rule:nonzero;fill:rgb(3.921569%,30.980392%,25.098039%);fill-opacity:1;" d="M 9.703125 12.652344 C 8.734375 12.796875 7.917969 13.050781 7.765625 14.320312 C 7.128906 12.941406 5.925781 12.550781 4.421875 12.800781 C 3.492188 12.957031 3.007812 12.484375 3 11.652344 C 2.988281 10.773438 3.433594 10.21875 4.457031 10.320312 C 5.121094 10.382812 5.808594 10.417969 6.464844 10.3125 C 8.289062 10.015625 9.277344 10.839844 9.703125 12.652344 Z M 9.703125 12.652344 "/>
<path style=" stroke:none;fill-rule:nonzero;fill:rgb(10.588235%,32.941176%,29.019608%);fill-opacity:1;" d="M 35.9375 30.519531 C 29.140625 30.625 22.25 30.621094 15.359375 30.617188 C 14.585938 30.617188 13.804688 30.675781 12.941406 30.328125 C 19.617188 30.289062 26.414062 30.296875 33.210938 30.316406 C 34.089844 30.320312 34.964844 30.378906 35.9375 30.519531 Z M 35.9375 30.519531 "/>
<path style=" stroke:none;fill-rule:nonzero;fill:rgb(3.921569%,86.666667%,47.45098%);fill-opacity:1;" d="M 17.863281 13.03125 C 18.402344 11.363281 19.175781 11.089844 20.238281 12.296875 C 21.28125 13.484375 21.972656 13.34375 22.902344 12.226562 C 23.691406 11.273438 24.648438 10.457031 25.535156 9.589844 C 26.085938 9.050781 26.703125 8.871094 27.324219 9.4375 C 28.003906 10.058594 27.867188 10.726562 27.269531 11.332031 C 25.738281 12.878906 24.195312 14.414062 22.660156 15.957031 C 21.949219 16.675781 21.214844 16.722656 20.496094 15.996094 C 19.589844 15.078125 18.527344 14.300781 17.863281 13.03125 Z M 17.863281 13.03125 "/>
</g>
</svg>
